<svg width="12" height="12" viewBox="0 0 12 12" fill="none" xmlns="http://www.w3.org/2000/svg">
<g clip-path="url(#clip0_162_38)">
<path d="M8.00923 2.17923C8.54169 2.18082 9.05188 2.39384 9.42838 2.77175C9.80489 3.14967 10.0171 3.66177 10.0187 4.19622V8.22977C10.0171 8.76421 9.80489 9.27632 9.42838 9.65423C9.05188 10.0321 8.54169 10.2452 8.00923 10.2468H3.99073C3.45828 10.2452 2.94809 10.0321 2.57158 9.65423C2.19508 9.27632 1.98286 8.76421 1.98127 8.22977V4.19622C1.98286 3.66177 2.19508 3.14967 2.57158 2.77175C2.94809 2.39384 3.45828 2.18082 3.99073 2.17923H8.00923ZM8.00923 1.37256H3.99073C2.44348 1.37256 1.17761 2.64317 1.17761 4.19622V8.22977C1.17761 9.78281 2.44348 11.0534 3.99073 11.0534H8.00923C9.55648 11.0534 10.8224 9.78281 10.8224 8.22977V4.19622C10.8224 2.64317 9.55648 1.37256 8.00923 1.37256Z" fill="#AEAEAE"/>
<path d="M8.61201 4.19644C8.49279 4.19644 8.37625 4.16095 8.27712 4.09447C8.17799 4.02798 8.10073 3.93349 8.0551 3.82293C8.00948 3.71237 7.99754 3.59071 8.0208 3.47334C8.04406 3.35597 8.10147 3.24816 8.18577 3.16354C8.27007 3.07893 8.37748 3.0213 8.49441 2.99795C8.61134 2.97461 8.73255 2.98659 8.84269 3.03239C8.95284 3.07818 9.04698 3.15573 9.11322 3.25523C9.17946 3.35473 9.21481 3.47171 9.21481 3.59138C9.21498 3.67089 9.1995 3.74964 9.16927 3.82313C9.13904 3.89661 9.09464 3.96338 9.03863 4.0196C8.98263 4.07582 8.91611 4.12038 8.84289 4.15073C8.76968 4.18107 8.69122 4.19661 8.61201 4.19644Z" fill="#AEAEAE"/>
<path d="M5.99999 4.59915C6.31793 4.59915 6.62873 4.69378 6.89309 4.87108C7.15744 5.04838 7.36349 5.30038 7.48516 5.59522C7.60683 5.89006 7.63866 6.21449 7.57663 6.52748C7.51461 6.84048 7.3615 7.12799 7.13669 7.35365C6.91187 7.57931 6.62544 7.73298 6.31361 7.79524C6.00178 7.8575 5.67856 7.82555 5.38482 7.70342C5.09108 7.5813 4.84002 7.37448 4.66338 7.10914C4.48674 6.84379 4.39246 6.53183 4.39246 6.2127C4.39292 5.7849 4.56243 5.37475 4.8638 5.07225C5.16517 4.76975 5.57379 4.5996 5.99999 4.59915ZM5.99999 3.79248C5.52311 3.79248 5.05693 3.93442 4.66041 4.20036C4.26389 4.4663 3.95484 4.84428 3.77235 5.28652C3.58985 5.72876 3.5421 6.21538 3.63514 6.68486C3.72817 7.15433 3.95782 7.58557 4.29503 7.92405C4.63224 8.26252 5.06187 8.49303 5.52959 8.58641C5.99732 8.67979 6.48213 8.63187 6.92271 8.44869C7.3633 8.26551 7.73988 7.9553 8.00482 7.5573C8.26976 7.15929 8.41118 6.69137 8.41118 6.2127C8.41118 5.57082 8.15714 4.95522 7.70496 4.50135C7.25277 4.04747 6.63948 3.79248 5.99999 3.79248Z" fill="#AEAEAE"/>
</g>
<defs>
<clipPath id="clip0_162_38">
<rect width="11.0226" height="11.0638" fill="white" transform="translate(0.488708 0.680664)"/>
</clipPath>
</defs>
</svg>
